PathFileType	4	(X/Y/Z)	OpenSim_Sub02_CSBaseline_Gyro.trc
DataRate	CameraRate	NumFrames	NumMarkers	Units	OrigDataRate	OrigDataStartFrame	OrigNumFrames
100	100	27	8	m	100	1	7057
Frame#	Time	torso_imu_offset_imu	pelvis_imu_offset_imu	tibia_r_imu_offset_imu	femur_r_imu_offset_imu	tibia_l_imu_offset_imu	femur_l_imu_offset_imu	toes_r_imu_offset_imu	toes_l_imu_offset_imu
				X1	Y1	Z1	X2	Y2	Z2	X3	Y3	Z3	X4	Y4	Z4	X5	Y5	Z5	X6	Y6	Z6	X7	Y7	Z7	X8		Y8	Z8	

1	0	0.07282639	0.02101276	-0.01792443	0.04723047	0.04135043	0.01196794	-0.03778930	-0.01598551	-0.04541206	0.03768092	-0.03637457	-0.04387453	-0.04258322	0.05001646	0.06975975	0.05492236	0.02459066	-0.01316456	-0.01221984	-0.02731100	-0.00510511	-0.02642717	0.00299537	0.03118949
2	0.01000000	0.06201136	0.01505762	-0.01315066	0.04134355	0.03494358	0.00964061	-0.01630821	-0.01665773	-0.05110586	0.03809453	-0.03585335	-0.03791537	-0.05077608	0.05225171	0.07174075	0.05174250	0.01977512	-0.01449125	-0.01255509	-0.03043824	-0.00444899	-0.02767334	0.00185218	0.02967427
3	0.02000000	0.05954399	0.01072123	-0.01266820	0.03402130	0.03182875	0.00803973	0.00929735	-0.01199397	-0.05375727	0.03319372	-0.02415829	-0.02990274	-0.07024003	0.04869747	0.06846542	0.04303746	0.01449718	-0.01184043	-0.00881736	-0.03131541	-0.00218176	-0.02969523	0.00175001	0.03031874
4	0.03000000	0.05245592	0.00861435	-0.01259801	0.02424333	0.02572579	0.00568090	0.05099307	-0.00377126	-0.05205541	0.03051718	-0.01094017	-0.02222952	-0.08488276	0.04725473	0.06643796	0.03591279	0.00827249	-0.00530888	-0.01291520	-0.03156145	-0.00046261	-0.02958966	0.00369967	0.02949065
5	0.04000000	0.04568621	0.01101275	-0.01360611	0.00838356	0.01660077	0.00474476	0.10643144	-0.00030092	-0.05482300	0.03611350	-0.00746916	-0.01749903	-0.08579831	0.05051275	0.06462682	0.02600183	0.00613489	0.00030465	-0.01198322	-0.02815722	0.00010367	-0.02707310	0.00448094	0.02299127
6	0.05000000	0.04447852	0.01615518	-0.01431895	-0.00584461	0.00839554	0.00127553	0.13347953	-0.00751748	-0.05986247	0.04136753	-0.01276261	-0.01477554	-0.06909076	0.05295343	0.06788607	0.01275429	0.01167391	0.01435140	-0.00475073	-0.02382330	-0.00075751	-0.02036189	0.00630730	0.02458208
7	0.06000000	0.03943380	0.01718290	-0.01629200	-0.01476286	0.00035290	-0.00701593	0.09699727	-0.01676285	-0.06618234	0.04074715	-0.02040508	-0.01323296	-0.06269305	0.04970078	0.06484066	-0.00103000	0.01800840	0.02060730	-0.00439025	-0.02239073	-0.00357401	-0.01802427	0.00591176	0.02172254
8	0.07000000	0.03029126	0.02574443	-0.01461398	-0.00676369	-0.00503570	-0.00157642	0.02752109	-0.02111623	-0.06644274	0.03550836	-0.02695050	-0.00897501	-0.05877867	0.05155292	0.05649438	-0.01770550	0.01803225	0.02346123	-0.00763196	-0.01757694	-0.00694311	-0.02022310	-0.00082281	0.02006633
9	0.08000000	0.02128921	0.04634161	-0.01667671	-0.00551621	-0.00855175	-0.00485452	-0.01461036	-0.01964300	-0.06874927	0.01363666	-0.02626054	-0.01394034	-0.05582846	0.03980392	0.04763935	-0.02807776	0.01856172	0.03110280	-0.00303339	-0.01755259	-0.00881978	-0.01691038	-0.00222404	0.02535165
10	0.09000000	0.01097216	0.04639767	-0.01580247	-0.00021201	-0.00847235	-0.00628386	-0.05215516	-0.02070390	-0.06721577	0.00095321	-0.02979350	-0.01498063	-0.03501093	0.03651090	0.04293863	-0.03616062	0.01704117	0.03575925	-0.00431533	-0.01528055	-0.00920627	-0.01767920	0.00297458	0.01990709
11	0.10000000	0.01291801	0.04035554	-0.01865395	0.00184990	-0.00662440	-0.00667148	-0.07607215	-0.02830148	-0.06444079	-0.01184222	-0.02282359	-0.02038585	-0.02591548	0.04081222	0.04219108	-0.03980785	0.01326120	0.04439816	-0.00216995	-0.01273763	-0.01143241	-0.01395892	0.00210465	0.01960380
12	0.11000000	0.01484511	0.05914289	-0.01851190	-0.00419615	-0.00316337	-0.00163978	-0.06384999	-0.02804641	-0.06033341	-0.02135856	-0.02200881	-0.02449237	-0.01733295	0.04024886	0.03841876	-0.03585264	0.01304539	0.05110973	-0.00541870	-0.00904956	-0.00961726	-0.01213416	0.00203954	0.01589134
13	0.12000000	0.01258517	0.06218217	-0.01439708	-0.01404784	0.00012962	-0.00180132	-0.02521037	-0.01563210	-0.05223813	-0.02626702	-0.02319195	-0.02811284	-0.01318142	0.02917648	0.03093579	-0.02920333	0.01353768	0.05515600	-0.00207610	-0.00961808	-0.00497053	-0.01181397	0.00266771	0.01453597
14	0.13000000	0.02294732	0.04678685	-0.01202594	-0.01302413	-0.00028670	-0.00196843	0.01353455	-0.00180536	-0.04415106	-0.02446622	-0.02997541	-0.03398238	-0.01254814	0.02066639	0.02383323	-0.01819636	0.01533055	0.06095140	-0.00721465	-0.00992430	-0.00655116	-0.01263204	0.00177658	0.01737809
15	0.14000000	0.02217570	0.06008139	-0.00265332	-0.01580151	0.00542642	0.01065415	0.04363818	-0.00774427	-0.03700682	-0.00798629	-0.03068636	-0.04130298	-0.00487468	0.01992481	0.02374039	-0.00350575	0.01726672	0.06793573	-0.00515046	-0.00667676	-0.00535391	-0.00869474	0.00634918	0.01432641
16	0.15000000	0.00253821	0.08429001	0.00788939	-0.01747650	0.01544074	0.00681027	0.05573686	-0.00785841	-0.03323288	-0.00258704	-0.02717641	-0.04465463	-0.00455740	0.01859534	0.02408761	0.00838073	0.01773171	0.07347645	-0.00893391	-0.00250406	-0.00200475	-0.00753272	0.00807338	0.01336400
17	0.16000000	-0.00128465	0.10416533	0.01909583	-0.02599330	0.02896297	0.00900358	0.05079362	-0.00541425	-0.03924475	0.00709671	-0.02655977	-0.04337508	-0.00574198	0.02215265	0.02134436	0.01325457	0.01558052	0.07206907	-0.00958702	-0.00606513	-0.00047310	-0.02337688	0.00308111	0.01839683
18	0.17000000	0.00086398	0.11923213	0.02653960	-0.03503563	0.04431389	0.00658354	0.03757341	-0.00822686	-0.03960360	0.01334569	-0.02670521	-0.04484800	-0.01388365	0.02230712	0.03550288	0.01615518	0.00941869	0.06838730	0.01425581	-0.01068950	-0.00711493	-0.02549625	0.00511285	0.02429962
19	0.18000000	-0.00661247	0.13991821	0.03316249	-0.03640734	0.05567232	0.00256176	0.01919853	-0.01107887	-0.04543866	0.01794187	-0.02508663	-0.04353343	-0.03857669	0.04178221	0.07326619	0.01259174	0.00635969	0.06708126	0.04906879	-0.01275674	-0.02028797	-0.00525064	0.00259962	0.01779813
20	0.19000000	-0.02451697	0.16088959	0.02203062	-0.03339919	0.05555174	0.00043997	0.00848120	-0.00918349	-0.08011541	0.02605221	-0.01770305	-0.04303829	-0.05641023	0.06328917	0.09657615	0.00615834	0.00432485	0.06561196	-0.00039350	-0.00790554	-0.01662111	-0.00204612	-0.00102722	0.01323077
21	0.20000000	-0.03303156	0.18008722	0.01415572	-0.03307929	0.05282205	0.00152855	0.01170533	-0.00446608	-0.14045881	0.03222526	-0.01520474	-0.03712394	-0.04159458	0.05814656	0.07706636	0.00161099	0.00215742	0.06247721	-0.01945013	-0.00637917	-0.00548477	-0.00493994	0.00055733	0.01403040
22	0.21000000	-0.03571081	0.19612098	0.02227865	-0.03274510	0.04969189	0.00173863	0.00562064	0.01472945	-0.16317791	0.03192107	-0.01565976	-0.03272128	-0.00482598	0.04507141	0.04881168	0.00301401	0.00617185	0.06242659	-0.01505114	-0.00581926	0.00044878	-0.01023330	-0.00134162	0.01592417
23	0.22000000	-0.04602659	0.20531780	0.02544735	-0.02899430	0.04592984	0.00709330	-0.00740690	0.02671263	-0.12593327	0.03401250	-0.01024904	-0.03506666	0.01707199	0.03370962	0.05762698	0.00905639	0.00376777	0.07448947	-0.02303015	-0.01543799	0.00094734	-0.01014788	-0.00275450	0.01361394
24	0.23000000	-0.04755256	0.20495198	0.02738747	-0.02817995	0.03752753	0.01107721	-0.00630029	0.01710642	-0.08583456	0.03470218	-0.00485864	-0.04981017	0.00877226	0.02860949	0.06757090	0.01151194	-0.00149336	0.08312028	-0.00525217	-0.01161981	-0.00265887	-0.01165725	0.00262286	0.01877505
25	0.24000000	-0.04892819	0.20308720	0.02870166	-0.01980924	0.03170852	0.01300579	0.01403183	0.00231552	-0.08861502	0.03564151	-0.01229281	-0.06743611	-0.01036225	0.03682524	0.06799819	0.01685747	0.00249178	0.09009867	-0.00486018	-0.01384066	-0.00604567	-0.00939844	-0.00042021	0.01905976
26	0.25000000	-0.04176153	0.19034276	0.03122468	-0.00726529	0.02817663	0.02279058	0.04480587	0.00888925	-0.09863026	0.02838418	-0.01888271	-0.07912869	-0.00972521	0.04403053	0.07213613	0.03120118	-0.00169893	0.09184044	0.00866647	-0.01531601	-0.01076844	-0.01113206	0.00158354	0.01719734
27	0.26000000	-0.04345374	0.17324377	0.03206819	0.00653903	0.02284839	0.02698447	0.05140935	0.01356527	-0.08741587	0.01459757	-0.02356750	-0.08393583	-0.00813511	0.03428471	0.07435264	0.03712555	0.00376258	0.09479230	0.00138313	-0.02055367	-0.01116359	-0.00923120	-0.00214912	0.01785490
